<svg id="Layer_1" data-name="Layer 1" xmlns="http://www.w3.org/2000/svg" viewBox="0 0 468 176.16"><defs><style>.cls-1{fill:#f26322;}</style></defs><path class="cls-1" d="M350.43,348.43l10.93,15.5c-7.24,7.28-32.59,30.15-70.63,30.15-53.59,0-57-39.56-110.33-39.56H164.77L162,338.44,222.26,277H175.53l3.61-18.88H255.7l-3.31,17.29-58.49,59.7c44.85,0,55.93,40.46,99.94,40.46C320.67,375.57,342.66,356.79,350.43,348.43Z" transform="translate(-162 -217.92)"/><path class="cls-1" d="M310.33,255.94c-32.86,0-55.63,28.31-55.63,61,0,23,15,39.8,39.39,39.8,32.87,0,55.84-28.12,55.84-60.79C349.93,274.55,336.27,255.94,310.33,255.94Zm-13.07,82.95c-11.68,0-18.81-9.3-18.81-22.57,0-18,10.7-42.56,29.11-42.56,14.06,0,18.41,12.27,18.41,22.17C326,315.14,314.49,338.89,297.26,338.89Z" transform="translate(-162 -217.92)"/><path class="cls-1" d="M447,283.06c0-16-12.08-27.12-31.09-27.12-33.26,0-54.64,31.68-54.64,60.78,0,23.56,12.87,40,39.6,40,11.68,0,24.55-2.78,34.05-7.73l-2.17-16.83a57,57,0,0,1-26.54,6.34c-9.1,0-16-3.37-19.8-9.9-2.17-3.76-3-10.3-2.57-13.66C421.09,315.73,447,307.81,447,283.06ZM413,273.16c7.33,0,12.28,3.77,12.28,9.9v.2c0,11.48-15.25,14.85-39,14.45C389,286,398.52,273.16,413,273.16Z" transform="translate(-162 -217.92)"/><path class="cls-1" d="M606,273.16a38.52,38.52,0,0,1,18,4.36L630,260.89c-4.36-2.58-12.67-4.95-22.77-4.95-22.77,0-39,13.06-39,31.68,0,11.08,7.92,19.2,19,25.14,9.5,4.95,12.67,8.71,12.67,14.85,0,6.34-5.54,11.68-14.85,11.88-8.71,0-18.22-3.76-23.16-6.53L556,349.58c5.15,3.77,15.64,6.94,26.93,7.14,23.16,0,41-11.89,41-33.07,0-12.28-9.5-20.2-20-25.94-8.12-4.16-12.48-7.92-12.48-13.26C591.39,277.92,597.33,273.16,606,273.16Z" transform="translate(-162 -217.92)"/><path class="cls-1" d="M538.36,232a13.71,13.71,0,0,1,13.86-14.06c7.13,0,12.27,5.15,12.27,12.48-.2,8.51-6.53,13.86-14.25,13.86H550C543.11,244.26,538.36,239.11,538.36,232Z" transform="translate(-162 -217.92)"/><polygon class="cls-1" points="354.75 136.62 377.71 136.62 396.13 40.2 373.16 40.2 354.75 136.62"/><path class="cls-1" d="M492.21,338.26c-6.82,0-10.34-4.21-8.6-12.81l9.77-49.51H515l3.56-17.82H496.76l4.77-24.75-23.82,6.93-3.55,17.82H460.62l-3.39,17.82h13.55l-10,50.93c-3.54,18.33,5.74,29.85,26.79,29.85,4.85,0,10.08-1.13,15.11-2.36l.75-17.92A46.78,46.78,0,0,1,492.21,338.26Z" transform="translate(-162 -217.92)"/></svg>